<?xml version="1.0" encoding="UTF-8" standalone="no"?>
<!-- Created with Inkscape (http://www.inkscape.org/) -->

<svg
   width="210mm"
   height="84mm"
   viewBox="0 0 210 84"
   version="1.1"
   id="svg1"
   xml:space="preserve"
   inkscape:export-filename="helice.png"
   inkscape:export-xdpi="96"
   inkscape:export-ydpi="96"
   xmlns:inkscape="http://www.inkscape.org/namespaces/inkscape"
   xmlns:sodipodi="http://sodipodi.sourceforge.net/DTD/sodipodi-0.dtd"
   xmlns="http://www.w3.org/2000/svg"
   xmlns:svg="http://www.w3.org/2000/svg"><sodipodi:namedview
     id="namedview1"
     pagecolor="#505050"
     bordercolor="#ffffff"
     borderopacity="1"
     inkscape:showpageshadow="0"
     inkscape:pageopacity="0"
     inkscape:pagecheckerboard="1"
     inkscape:deskcolor="#505050"
     inkscape:document-units="mm"><inkscape:page
       x="0"
       y="0"
       width="210"
       height="84"
       id="page2"
       margin="0"
       bleed="0" /></sodipodi:namedview><defs
     id="defs1"><inkscape:path-effect
       effect="perspective-envelope"
       up_left_point="1,2.8123259"
       up_right_point="300,100"
       down_left_point="2,206.11"
       down_right_point="210.73,207.41"
       id="path-effect2"
       is_visible="true"
       lpeversion="1"
       deform_type="perspective"
       horizontal_mirror="false"
       vertical_mirror="false"
       overflow_perspective="false" /></defs><g
     inkscape:label="Capa 1"
     inkscape:groupmode="layer"
     id="layer1"><path
       style="fill:#000000;stroke-width:1.23305"
       d="M 34.833439,205.93104 C 24.202197,204.86363 12.583704,201.20293 7.2730976,197.06033 0.08637582,191.45425 0.0294844,185.66993 7.5757035,179.83877 11.32689,176.94013 20.016219,173.73869 35.271515,169.6316 c 28.418633,-7.65097 57.49207,-12.96171 84.075785,-15.51144 5.51231,-0.52871 7.444,-0.85817 7.33607,-1.24865 -0.36143,-1.30771 0.67718,-4.42059 2.12264,-6.31078 3.73962,-4.89017 12.77274,-8.9828 21.3685,-9.66481 5.33777,-0.4235 13.44336,0.48406 17.31015,1.90467 l 2.69848,0.99138 3.15651,-2.2765 c 15.19349,-10.95764 35.79102,-23.46828 59.63908,-36.13553 15.97466,-8.485164 20.07685,-10.085984 27.60088,-10.770421 6.83128,-0.621416 10.88536,-0.150123 15.86337,1.801811 10.51213,4.121928 14.03734,12.59014 10.17733,22.30111 -1.32908,3.34367 -6.31162,9.4438 -9.69869,11.93446 -4.34618,3.19596 -7.67995,4.91077 -13.78528,7.09831 -19.18178,6.87282 -51.81137,13.84443 -77.42928,16.37217 l -6.57945,0.64921 -2.18082,3.82854 c -2.04742,3.59455 -2.23969,3.80906 -5.10815,5.72062 -7.18646,4.78903 -19.01992,6.90893 -28.67725,5.04496 -1.99389,-0.38484 -3.98136,-0.81485 -4.39975,-0.95243 -0.55229,-0.18163 -1.69655,0.41112 -4.13227,2.13955 -5.17417,3.67168 -15.82694,10.60819 -21.75073,14.17012 -14.989612,9.01314 -36.251128,20.17861 -41.948725,22.05741 -4.190604,1.38187 -11.419116,2.76734 -17.276141,3.30261 -4.910556,0.44877 -13.483129,0.38894 -18.820441,-0.14694 z"
       id="path1"
       inkscape:path-effect="#path-effect2"
       inkscape:original-d="m 27.173041,205.37925 c -7.648673,-1.85156 -15.704421,-8.24281 -19.2400307,-15.26461 -4.522751,-8.98228 -4.515728,-18.10578 0.02114,-27.45663 2.2199297,-4.57546 7.3998857,-9.95898 16.6151417,-17.26812 17.496687,-13.87761 36.376926,-24.97113 55.059947,-32.35177 4.016146,-1.58657 5.390606,-2.35018 5.186676,-2.88159 -0.67794,-1.76669 -0.83983,-6.2027 -0.328,-8.98722 1.3004,-7.074469 6.7308,-13.935969 12.98766,-16.41035 3.949445,-1.561869 10.658745,-1.984368 14.346245,-0.903408 l 2.62398,0.769197 1.60226,-3.620595 c 7.53027,-17.015876 18.42188,-36.455375 31.5393,-56.291779 8.6012,-13.006863 11.11574,-15.7575287 17.06246,-18.6646007 5.48649,-2.682082 9.3208,-3.490329 15.03293,-3.168839 12.64538,0.711711 22.71516,8.4140727 26.941,20.6071247 1.52505,4.400317 1.62541,13.496371 0.19542,17.712792 -1.85701,5.475581 -3.95581,8.73133 -8.65014,13.418495 -14.69783,14.67536 -42.68872,32.379584 -65.31475,41.311524 l -5.58296,2.20396 0.016,6.072959 c 0.0155,5.84372 -0.0477,6.20901 -1.67375,9.67734 -4.12345,8.7951 -13.78909,13.99709 -23.02049,12.38952 -1.85178,-0.32247 -3.697875,-0.71334 -4.102415,-0.86856 -0.53246,-0.20433 -1.26095,0.88238 -2.63861,3.93603 -2.95659,6.55348 -9.39121,19.28155 -13.13392,25.97973 -9.653227,17.27597 -24.193179,39.43731 -28.393026,43.27573 -3.081112,2.81596 -8.556593,5.68015 -13.035072,6.81856 -3.703153,0.94132 -10.150181,0.92539 -14.117074,-0.0349 z"
       transform="matrix(0.72080492,0,0,0.69057874,1.2986717,-60.412917)" /></g></svg>
